<svg xmlns="http://www.w3.org/2000/svg" xmlns:xlink="http://www.w3.org/1999/xlink" width="500" zoomAndPan="magnify" viewBox="0 0 375 374.999991" height="500" preserveAspectRatio="xMidYMid meet" version="1.0"><defs><g/><clipPath id="b760d101ff"><path d="M 90.816406 153.289062 L 138.066406 153.289062 L 138.066406 185 L 90.816406 185 Z M 90.816406 153.289062 " clip-rule="nonzero"/></clipPath><clipPath id="137bde1215"><path d="M 90.816406 175 L 138.066406 175 L 138.066406 200.539062 L 90.816406 200.539062 Z M 90.816406 175 " clip-rule="nonzero"/></clipPath></defs><rect x="-37.5" width="450" fill="#ffffff" y="-37.499999" height="449.999989" fill-opacity="1"/><rect x="-37.5" width="450" fill="#ffffff" y="-37.499999" height="449.999989" fill-opacity="1"/><g clip-path="url(#b760d101ff)"><path fill="#242424" d="M 127.46875 155.78125 C 126.96875 155.992188 126.503906 156.300781 126.125 156.714844 C 125.074219 157.792969 123.941406 159.191406 122.746094 160.863281 C 121.582031 162.484375 120.375 164.304688 119.144531 166.285156 C 117.917969 168.265625 116.699219 170.363281 115.523438 172.535156 C 114.539062 174.34375 113.585938 176.199219 112.707031 178.039062 C 112.167969 178.539062 111.65625 178.992188 111.179688 179.417969 C 111.59375 178.601562 112.070312 177.691406 112.601562 176.707031 C 113.308594 175.425781 113.257812 174.3125 113.078125 173.582031 C 112.832031 172.597656 112.28125 171.78125 111.5 171.222656 C 110.789062 170.710938 109.964844 170.4375 109.019531 170.40625 L 109 170.40625 C 108.957031 170.40625 108.914062 170.40625 108.882812 170.40625 C 107.898438 170.40625 106.957031 170.753906 106.152344 171.410156 C 105.824219 171.664062 105.484375 171.984375 105.082031 172.394531 C 104.773438 172.726562 104.476562 173.042969 104.191406 173.359375 C 103.632812 173.011719 103.027344 172.746094 102.382812 172.578125 C 101.894531 172.449219 101.386719 172.386719 100.878906 172.386719 C 99.691406 172.386719 98.472656 172.734375 97.257812 173.433594 C 96.113281 174.070312 95.011719 174.863281 93.953125 175.796875 C 93.730469 175.996094 93.507812 176.199219 93.296875 176.398438 L 93.296875 156.671875 C 93.296875 156.195312 93.699219 155.78125 94.183594 155.78125 L 127.46875 155.78125 M 134.679688 153.292969 L 94.195312 153.292969 C 92.332031 153.292969 90.816406 154.808594 90.816406 156.671875 L 90.816406 184.117188 C 90.945312 183.8125 91.09375 183.503906 91.261719 183.175781 C 91.78125 182.210938 92.394531 181.257812 93.125 180.308594 C 93.855469 179.355469 94.683594 178.476562 95.605469 177.648438 C 96.527344 176.832031 97.480469 176.144531 98.472656 175.582031 C 99.3125 175.097656 100.117188 174.851562 100.867188 174.851562 C 101.164062 174.851562 101.449219 174.894531 101.734375 174.96875 C 102.742188 175.234375 103.597656 175.878906 104.296875 176.898438 C 104.5 176.683594 104.753906 176.429688 105.039062 176.101562 C 105.324219 175.773438 105.632812 175.445312 105.941406 175.097656 C 106.246094 174.746094 106.554688 174.410156 106.859375 174.078125 C 107.167969 173.761719 107.433594 173.507812 107.675781 173.339844 C 108.035156 173.03125 108.429688 172.871094 108.851562 172.871094 C 108.875 172.871094 108.882812 172.871094 108.90625 172.871094 C 109.347656 172.894531 109.71875 173.011719 110.027344 173.222656 C 110.335938 173.445312 110.535156 173.761719 110.640625 174.164062 C 110.738281 174.566406 110.664062 175.011719 110.398438 175.476562 C 108.789062 178.433594 107.730469 180.667969 107.210938 182.191406 C 106.703125 183.714844 106.660156 184.585938 107.105469 184.828125 C 107.1875 184.871094 107.285156 184.890625 107.402344 184.890625 C 107.898438 184.890625 108.703125 184.488281 109.824219 183.683594 C 111.105469 182.761719 112.738281 181.367188 114.71875 179.511719 C 115.640625 177.574219 116.636719 175.636719 117.683594 173.699219 C 118.847656 171.550781 120.035156 169.503906 121.242188 167.578125 C 122.4375 165.652344 123.613281 163.882812 124.746094 162.292969 C 125.890625 160.695312 126.9375 159.402344 127.902344 158.40625 C 128.1875 158.101562 128.515625 157.953125 128.898438 157.953125 C 129.035156 157.953125 129.183594 157.972656 129.332031 158.003906 C 129.902344 158.152344 130.390625 158.441406 130.804688 158.863281 C 131.214844 159.285156 131.472656 159.785156 131.578125 160.355469 C 131.671875 160.929688 131.460938 161.414062 130.941406 161.828125 C 130.476562 162.210938 129.839844 162.8125 129.035156 163.648438 C 128.230469 164.484375 127.351562 165.503906 126.398438 166.699219 C 125.445312 167.894531 124.449219 169.21875 123.414062 170.671875 C 122.375 172.121094 121.367188 173.636719 120.40625 175.214844 C 119.441406 176.789062 118.550781 178.402344 117.746094 180.042969 C 116.941406 181.683594 116.296875 183.273438 115.796875 184.828125 C 116.148438 184.300781 116.667969 183.515625 117.355469 182.476562 C 118.042969 181.441406 118.828125 180.339844 119.707031 179.164062 C 120.585938 178 121.527344 176.855469 122.554688 175.742188 C 123.582031 174.628906 124.597656 173.730469 125.625 173.019531 C 126.589844 172.355469 127.488281 171.953125 128.324219 171.8125 C 128.578125 171.773438 128.824219 171.75 129.066406 171.75 C 129.597656 171.75 130.0625 171.84375 130.476562 172.058594 C 131.078125 172.34375 131.546875 172.820312 131.882812 173.457031 C 132.222656 174.101562 132.371094 174.875 132.339844 175.765625 C 132.308594 176.652344 132.085938 177.628906 131.683594 178.675781 C 131.269531 179.722656 130.632812 180.816406 129.753906 181.925781 C 130.191406 181.757812 130.804688 181.523438 131.578125 181.226562 C 132.351562 180.941406 133.144531 180.625 133.949219 180.308594 C 134.753906 179.976562 135.515625 179.691406 136.246094 179.425781 C 136.976562 179.164062 137.550781 178.960938 137.960938 178.8125 C 137.984375 178.804688 138.015625 178.804688 138.035156 178.792969 L 138.035156 156.671875 C 138.046875 154.808594 136.53125 153.292969 134.679688 153.292969 Z M 134.679688 153.292969 " fill-opacity="1" fill-rule="nonzero"/></g><g clip-path="url(#137bde1215)"><path fill="#f69606" d="M 94.164062 185.21875 C 94.121094 185.0625 94.175781 184.796875 94.332031 184.445312 C 94.492188 184.097656 94.695312 183.726562 94.949219 183.335938 C 95.191406 182.933594 95.476562 182.539062 95.785156 182.148438 C 96.089844 181.757812 96.347656 181.441406 96.546875 181.207031 C 97.511719 180.125 98.378906 179.332031 99.164062 178.835938 C 99.9375 178.335938 100.582031 178.03125 101.089844 177.914062 C 101.609375 177.796875 101.96875 177.808594 102.210938 177.957031 C 102.445312 178.105469 102.5 178.285156 102.382812 178.484375 C 102.234375 178.75 101.925781 179.140625 101.460938 179.671875 C 100.996094 180.199219 100.453125 180.75 99.863281 181.332031 C 99.257812 181.917969 98.644531 182.488281 98.019531 183.050781 C 97.382812 183.601562 96.824219 184.054688 96.324219 184.40625 C 95.59375 184.902344 95.0625 185.199219 94.726562 185.304688 C 94.398438 185.410156 94.207031 185.378906 94.164062 185.21875 Z M 135.082031 182.476562 C 134.351562 182.804688 133.578125 183.144531 132.773438 183.515625 C 131.96875 183.875 131.207031 184.234375 130.496094 184.5625 C 129.777344 184.902344 129.121094 185.21875 128.527344 185.527344 C 127.921875 185.835938 127.46875 186.089844 127.152344 186.289062 C 126.007812 187.519531 124.957031 188.492188 124.015625 189.203125 C 123.0625 189.921875 122.214844 190.429688 121.472656 190.714844 C 120.734375 191.011719 120.097656 191.140625 119.570312 191.085938 C 119.039062 191.042969 118.625 190.863281 118.339844 190.535156 C 117.671875 189.835938 117.671875 188.914062 118.359375 187.792969 C 119.050781 186.660156 120.53125 185.546875 122.820312 184.4375 C 123.371094 184.171875 123.964844 183.726562 124.597656 183.101562 C 125.222656 182.46875 125.804688 181.777344 126.355469 181.039062 C 126.894531 180.296875 127.371094 179.542969 127.785156 178.78125 C 128.199219 178.019531 128.453125 177.394531 128.546875 176.898438 C 128.652344 176.398438 128.570312 176.070312 128.304688 175.933594 C 128.039062 175.785156 127.53125 175.945312 126.769531 176.410156 C 126.007812 176.875 125.203125 177.542969 124.355469 178.378906 C 123.507812 179.226562 122.648438 180.179688 121.792969 181.226562 C 120.890625 182.308594 120.042969 183.410156 119.199219 184.5625 C 118.351562 185.71875 117.566406 186.828125 116.867188 187.898438 C 116.167969 188.96875 115.542969 189.941406 115.003906 190.84375 C 114.464844 191.734375 114.050781 192.429688 113.753906 192.929688 C 113.40625 193.542969 112.980469 193.914062 112.503906 194.050781 C 112.027344 194.1875 111.574219 194.167969 111.171875 194.007812 C 110.769531 193.851562 110.429688 193.574219 110.1875 193.195312 C 109.933594 192.8125 109.878906 192.390625 109.996094 191.921875 C 110.410156 190.28125 110.992188 188.460938 111.773438 186.4375 C 111.996094 185.867188 112.230469 185.292969 112.460938 184.710938 C 111.289062 185.824219 110.226562 186.660156 109.296875 187.210938 C 107.484375 188.28125 105.949219 188.492188 104.691406 187.847656 C 103.894531 187.433594 103.453125 186.648438 103.335938 185.472656 C 103.21875 184.308594 103.621094 182.53125 104.5625 180.160156 C 103.738281 180.953125 102.804688 181.917969 101.757812 183.082031 C 100.707031 184.234375 99.617188 185.335938 98.484375 186.375 C 97.363281 187.414062 96.21875 188.238281 95.0625 188.851562 C 93.910156 189.464844 92.808594 189.613281 91.75 189.296875 C 91.378906 189.191406 91.070312 189.023438 90.839844 188.800781 L 90.839844 197.164062 C 90.839844 199.019531 92.355469 200.53125 94.21875 200.53125 L 134.699219 200.53125 C 136.554688 200.53125 138.066406 199.019531 138.066406 197.164062 L 138.066406 181.21875 C 137.792969 181.332031 137.464844 181.472656 137.09375 181.621094 C 136.480469 181.875 135.8125 182.160156 135.082031 182.476562 Z M 135.082031 182.476562 " fill-opacity="1" fill-rule="nonzero"/></g><g fill="#242424" fill-opacity="1"><g transform="translate(146.571337, 191.739537)"><g><path d="M 16.484375 0 L 14.796875 -7.40625 L 7.140625 -7.40625 L 5.453125 0 L 0 0 L 7.265625 -29.46875 L 14.671875 -29.46875 L 21.953125 0 Z M 13.765625 -12.25 L 12.203125 -19.0625 C 12.109375 -19.476562 11.894531 -20.519531 11.5625 -22.1875 C 11.238281 -23.851562 11.046875 -24.96875 10.984375 -25.53125 C 10.804688 -24.382812 10.582031 -23.117188 10.3125 -21.734375 C 10.050781 -20.347656 9.359375 -17.1875 8.234375 -12.25 Z M 13.765625 -12.25 "/></g></g></g><g fill="#242424" fill-opacity="1"><g transform="translate(168.531128, 191.739537)"><g><path d="M 8.046875 -11.421875 L 8.046875 0 L 2.59375 0 L 2.59375 -29.34375 L 9.734375 -29.34375 C 12.753906 -29.34375 14.984375 -28.625 16.421875 -27.1875 C 17.867188 -25.757812 18.59375 -23.578125 18.59375 -20.640625 C 18.59375 -16.929688 17.335938 -14.335938 14.828125 -12.859375 L 20.46875 0 L 14.640625 0 L 10 -11.421875 Z M 8.046875 -16.125 L 9.453125 -16.125 C 10.734375 -16.125 11.65625 -16.488281 12.21875 -17.21875 C 12.78125 -17.945312 13.0625 -19.03125 13.0625 -20.46875 C 13.0625 -21.96875 12.765625 -23.035156 12.171875 -23.671875 C 11.578125 -24.304688 10.660156 -24.625 9.421875 -24.625 L 8.046875 -24.625 Z M 8.046875 -16.125 "/></g></g></g><g fill="#242424" fill-opacity="1"><g transform="translate(189.085814, 191.739537)"><g><path d="M 16.734375 0 L 0.859375 0 L 0.859375 -3.8125 L 10.234375 -24.59375 L 1.140625 -24.59375 L 1.140625 -29.34375 L 16.4375 -29.34375 L 16.4375 -25.53125 L 7.0625 -4.78125 L 16.734375 -4.78125 Z M 16.734375 0 "/></g></g></g><g fill="#242424" fill-opacity="1"><g transform="translate(206.689779, 191.739537)"><g><path d="M 16.484375 0 L 14.796875 -7.40625 L 7.140625 -7.40625 L 5.453125 0 L 0 0 L 7.265625 -29.46875 L 14.671875 -29.46875 L 21.953125 0 Z M 13.765625 -12.25 L 12.203125 -19.0625 C 12.109375 -19.476562 11.894531 -20.519531 11.5625 -22.1875 C 11.238281 -23.851562 11.046875 -24.96875 10.984375 -25.53125 C 10.804688 -24.382812 10.582031 -23.117188 10.3125 -21.734375 C 10.050781 -20.347656 9.359375 -17.1875 8.234375 -12.25 Z M 13.765625 -12.25 "/></g></g></g><g fill="#242424" fill-opacity="1"><g transform="translate(228.64957, 191.739537)"><g><path d="M 23.140625 0 L 16.484375 0 L 7.40625 -21.25 L 7.140625 -21.25 C 7.472656 -19.632812 7.640625 -17.894531 7.640625 -16.03125 L 7.640625 0 L 2.59375 0 L 2.59375 -29.34375 L 9.296875 -29.34375 L 18.28125 -8.3125 L 18.5 -8.3125 C 18.25 -9.71875 18.125 -11.390625 18.125 -13.328125 L 18.125 -29.34375 L 23.140625 -29.34375 Z M 23.140625 0 "/></g></g></g><g fill="#242424" fill-opacity="1"><g transform="translate(254.372111, 191.739537)"><g><path d="M 3.21875 -29.34375 L 8.828125 -29.34375 C 11.128906 -29.34375 12.898438 -28.753906 14.140625 -27.578125 C 15.378906 -26.398438 16 -24.660156 16 -22.359375 C 16 -18.390625 14.546875 -16.113281 11.640625 -15.53125 L 11.640625 -15.375 C 13.316406 -15.03125 14.5625 -14.285156 15.375 -13.140625 C 16.1875 -11.992188 16.59375 -10.394531 16.59375 -8.34375 C 16.59375 -5.726562 16.007812 -3.679688 14.84375 -2.203125 C 13.6875 -0.734375 12.054688 0 9.953125 0 L 3.21875 0 Z M 5.171875 -16.28125 L 8.875 -16.28125 C 10.707031 -16.28125 12.015625 -16.785156 12.796875 -17.796875 C 13.578125 -18.804688 13.96875 -20.34375 13.96875 -22.40625 C 13.96875 -24.0625 13.535156 -25.332031 12.671875 -26.21875 C 11.804688 -27.101562 10.523438 -27.546875 8.828125 -27.546875 L 5.171875 -27.546875 Z M 5.171875 -14.46875 L 5.171875 -1.8125 L 9.6875 -1.8125 C 12.925781 -1.8125 14.546875 -4.003906 14.546875 -8.390625 C 14.546875 -10.347656 14.070312 -11.847656 13.125 -12.890625 C 12.175781 -13.941406 10.847656 -14.46875 9.140625 -14.46875 Z M 5.171875 -14.46875 "/></g></g></g><g fill="#242424" fill-opacity="1"><g transform="translate(272.578264, 191.739537)"><g><path d="M 17.34375 -29.34375 L 17.34375 -9.53125 C 17.34375 -2.90625 14.972656 0.40625 10.234375 0.40625 C 7.867188 0.40625 6.0625 -0.445312 4.8125 -2.15625 C 3.570312 -3.875 2.953125 -6.332031 2.953125 -9.53125 L 2.953125 -29.34375 L 4.9375 -29.34375 L 4.9375 -9.296875 C 4.9375 -6.753906 5.394531 -4.816406 6.3125 -3.484375 C 7.226562 -2.148438 8.535156 -1.484375 10.234375 -1.484375 C 11.921875 -1.484375 13.195312 -2.148438 14.0625 -3.484375 C 14.9375 -4.816406 15.375 -6.78125 15.375 -9.375 L 15.375 -29.34375 Z M 17.34375 -29.34375 "/></g></g></g><g fill="#242424" fill-opacity="1"><g transform="translate(292.892075, 191.739537)"><g><path d="M 6.90625 -14.1875 L 11.6875 -29.34375 L 13.765625 -29.34375 L 7.84375 -11.46875 L 7.84375 0 L 5.875 0 L 5.875 -11.46875 L 0 -29.34375 L 2.09375 -29.34375 Z M 6.90625 -14.1875 "/></g></g></g></svg>